<?xml version="1.0" encoding="utf-8"?>
<!-- Generator: Adobe Illustrator 16.0.3, SVG Export Plug-In . SVG Version: 6.00 Build 0)  -->
<!DOCTYPE svg PUBLIC "-//W3C//DTD SVG 1.1//EN" "http://www.w3.org/Graphics/SVG/1.1/DTD/svg11.dtd">
<svg version="1.1" id="Layer_1" xmlns="http://www.w3.org/2000/svg" xmlns:xlink="http://www.w3.org/1999/xlink" x="0px" y="0px"
	 width="4000px" height="2000px" viewBox="0 0 4000 2000" enable-background="new 0 0 4000 2000" xml:space="preserve">
<rect x="13.5" y="1885.5" fill="#FFFFFF" stroke="#000000" stroke-miterlimit="10" width="3952" height="47"/>
<rect x="-192.313" y="0.5" fill="#FFFFFF" stroke="#000000" stroke-miterlimit="10" width="236.001" height="1885"/>
<rect x="-58.5" y="314.003" fill="#FFFFFF" stroke="#000000" stroke-miterlimit="10" width="614" height="250.612"/>
<rect x="760.5" y="27.5" fill="#FFFFFF" stroke="#000000" stroke-miterlimit="10" width="256.64" height="1160"/>
<rect x="147.5" y="1048.5" fill="#FFFFFF" stroke="#000000" stroke-miterlimit="10" width="613" height="139"/>
<rect x="246.167" y="1576.78" fill="#FFFFFF" stroke="#000000" stroke-miterlimit="10" width="231" height="113.438"/>
<rect x="727.999" y="1443.493" fill="#FFFFFF" stroke="#000000" stroke-miterlimit="10" width="431" height="61"/>
<rect x="1317.492" y="1626.999" fill="#FFFFFF" stroke="#000000" stroke-miterlimit="10" width="385" height="34"/>
<rect x="523.5" y="1187.5" fill="#FFFFFF" stroke="#000000" stroke-miterlimit="10" width="32" height="203"/>
<rect x="1481.5" y="1156.5" fill="#FFFFFF" stroke="#000000" stroke-miterlimit="10" width="253" height="160"/>
<rect x="1086.5" y="732.5" fill="#FFFFFF" stroke="#000000" stroke-miterlimit="10" width="292" height="150"/>
<rect x="1915.5" y="777.5" fill="#FFFFFF" stroke="#000000" stroke-miterlimit="10" width="282" height="105"/>
<rect x="2668.5" y="682.5" fill="#FFFFFF" stroke="#000000" stroke-miterlimit="10" width="584" height="71"/>
<rect x="3263.5" y="1061.5" fill="#FFFFFF" stroke="#000000" stroke-miterlimit="10" width="373" height="281"/>
<rect x="3826.5" y="1650.5" fill="#FFFFFF" stroke="#000000" stroke-miterlimit="10" width="231" height="64"/>
<path d="M280.817,207.977c-0.14-0.19-0.289-0.363-0.441-0.526c2.769-4.071-1.696-10.59-6.399-7.268
	c-8.87,6.266-17.305,13.584-24.314,21.891c-5.9,6.991-13.338,18.599-4.959,26.666c9.679,9.319,25.05,3.347,32.412-5.58
	C284.898,233.722,288.569,218.523,280.817,207.977z M269.357,236.92c-2.63,3.189-6.337,5.913-10.555,6.344
	c-2.162,0.221-7.012-0.308-7.783-2.511c-1.77-5.061,7.407-13.701,10.646-17.031c3.433-3.531,7.104-6.901,10.951-10.033
	C277.357,220.929,274.583,230.584,269.357,236.92z"/>
<path fill="none" stroke="#000000" stroke-miterlimit="10" d="M562.5,272.5c0.271,45.402,15.663,100.998,38,140"/>
</svg>
